HIERARCHY
ROOT Hips
{
	OFFSET 0.000000 0.000000 0.000000
	CHANNELS 6 Xposition Yposition Zposition Zrotation Yrotation Xrotation 
	JOINT LHipJoint
	{
		OFFSET 0.000000 0.000000 0.000000
		CHANNELS 3 Zrotation Yrotation Xrotation
		JOINT LeftUpLeg
		{
			OFFSET 1.363060 -1.794630 0.839290
			CHANNELS 3 Zrotation Yrotation Xrotation
			JOINT LeftLeg
			{
				OFFSET 2.448110 -6.726130 0.000000
				CHANNELS 3 Zrotation Yrotation Xrotation
				JOINT LeftFoot
				{
					OFFSET 2.562200 -7.039590 0.000000
					CHANNELS 3 Zrotation Yrotation Xrotation
					JOINT LeftToeBase
					{
						OFFSET 0.157640 -0.433110 2.322550
						CHANNELS 3 Zrotation Yrotation Xrotation
						End Site
						{
							OFFSET 0.000000 0.000000 0.000000
						}
					}
				}
			}
		}
	}
	JOINT RHipJoint
	{
		OFFSET 0.000000 0.000000 0.000000
		CHANNELS 3 Zrotation Yrotation Xrotation
		JOINT RightUpLeg
		{
			OFFSET -1.305520 -1.794630 0.839290
			CHANNELS 3 Zrotation Yrotation Xrotation
			JOINT RightLeg
			{
				OFFSET -2.542530 -6.985550 0.000000
				CHANNELS 3 Zrotation Yrotation Xrotation
				JOINT RightFoot
				{
					OFFSET -2.568260 -7.056230 0.000000
					CHANNELS 3 Zrotation Yrotation Xrotation
					JOINT RightToeBase
					{
						OFFSET -0.164730 -0.452590 2.363150
						CHANNELS 3 Zrotation Yrotation Xrotation
						End Site
						{
							OFFSET 0.000000 0.000000 0.000000
						}
					}
				}
			}
		}
	}
	JOINT LowerBack
	{
		OFFSET 0.000000 0.000000 0.000000
		CHANNELS 3 Zrotation Yrotation Xrotation
		JOINT Spine
		{
			OFFSET 0.028270 2.035590 -0.193380
			CHANNELS 3 Zrotation Yrotation Xrotation
			JOINT Spine1
			{
				OFFSET 0.056720 2.048850 -0.042750
				CHANNELS 3 Zrotation Yrotation Xrotation
				JOINT Neck
				{
					OFFSET 0.000000 0.000000 0.000000
					CHANNELS 3 Zrotation Yrotation Xrotation
					JOINT Neck1
					{
						OFFSET -0.054170 1.746240 0.172020
						CHANNELS 3 Zrotation Yrotation Xrotation
						JOINT Head
						{
							OFFSET 0.104070 1.761360 -0.123970
							CHANNELS 3 Zrotation Yrotation Xrotation
							End Site
							{
								OFFSET 0.000000 0.000000 0.000000
							}
						}
					}
				}
				JOINT LeftShoulder
				{
					OFFSET 0.000000 0.000000 0.000000
					CHANNELS 3 Zrotation Yrotation Xrotation
					JOINT LeftArm
					{
						OFFSET 3.362410 1.200890 -0.311210
						CHANNELS 3 Zrotation Yrotation Xrotation
						JOINT LeftForeArm
						{
							OFFSET 4.983000 -0.000000 -0.000000
							CHANNELS 3 Zrotation Yrotation Xrotation
							JOINT LeftHand
							{
								OFFSET 3.483560 -0.000000 -0.000000
								CHANNELS 3 Zrotation Yrotation Xrotation
								JOINT LeftFingerBase
								{
									OFFSET 0.000000 0.000000 0.000000
									CHANNELS 3 Zrotation Yrotation Xrotation
									JOINT LeftHandIndex1
									{
										OFFSET 0.715260 -0.000000 -0.000000
										CHANNELS 3 Zrotation Yrotation Xrotation
										End Site
										{
											OFFSET 0.000000 0.000000 0.000000
										}
									}
								}
								JOINT LThumb
								{
									OFFSET 0.000000 0.000000 0.000000
									CHANNELS 3 Zrotation Yrotation Xrotation
									End Site
									{
										OFFSET 0.000000 0.000000 0.000000
									}
								}
							}
						}
					}
				}
				JOINT RightShoulder
				{
					OFFSET 0.000000 0.000000 0.000000
					CHANNELS 3 Zrotation Yrotation Xrotation
					JOINT RightArm
					{
						OFFSET -3.136600 1.374050 -0.404650
						CHANNELS 3 Zrotation Yrotation Xrotation
						JOINT RightForeArm
						{
							OFFSET -5.241900 -0.000000 -0.000000
							CHANNELS 3 Zrotation Yrotation Xrotation
							JOINT RightHand
							{
								OFFSET -3.444170 -0.000000 -0.000000
								CHANNELS 3 Zrotation Yrotation Xrotation
								JOINT RightFingerBase
								{
									OFFSET 0.000000 0.000000 0.000000
									CHANNELS 3 Zrotation Yrotation Xrotation
									JOINT RightHandIndex1
									{
										OFFSET -0.622530 -0.000000 -0.000000
										CHANNELS 3 Zrotation Yrotation Xrotation
										End Site
										{
											OFFSET 0.000000 0.000000 0.000000
										}
									}
								}
								JOINT RThumb
								{
									OFFSET 0.000000 0.000000 0.000000
									CHANNELS 3 Zrotation Yrotation Xrotation
									End Site
									{
										OFFSET 0.000000 0.000000 0.000000
									}
								}
							}
						}
					}
				}
			}
		}
	}
}
MOTION
Frames: 8
Frame Time: 0.008333
-0.239064 17.843627 -13.892461 -1.787509 -0.382041 5.395964 -0.875371 0.726964 1.235863 -13.069956 3.721423 -8.863374 -0.663329 3.680250 10.503290 -1.266593 7.935044 -0.160374 0.043200 1.340800 3.687100 -1.212813 -0.897054 -0.109143 22.115874 -1.914433 -10.421260 -0.308535 -6.067596 17.387619 -0.020702 -1.707966 -6.370858 -0.871300 -5.951300 16.643100 0.850245 -0.680503 -6.066156 1.405780 -1.084569 -2.183563 0.905091 -0.871217 9.046343 -3.844373 -0.345967 -10.670004 7.590657 -1.085380 17.017558 1.939400 0.123500 6.375100 9.205348 5.245208 0.394624 -96.402842 -10.353457 24.804395 6.293089 -14.602576 -0.743574 -0.075196 -0.711067 5.602803 25.536596 -3.642196 -1.360500 -7.125000 0.000000 0.000000 -0.805400 26.823400 0.355300 -8.396981 -5.166989 0.084204 95.076875 6.103635 12.199644 -8.670293 19.674454 -1.639765 0.624479 0.854764 36.527668 -20.749494 -24.769849 9.397300 7.125000 0.000000 0.000000 10.066200 -57.140200 -3.014600 
-0.228055 17.844233 -13.887916 -1.777056 -0.370242 5.416406 -0.876848 0.725133 1.236326 -13.120629 3.750854 -8.869373 -0.665441 3.672037 10.482926 -1.253531 7.871654 -0.182211 0.043900 1.352400 3.719000 -1.211565 -0.897166 -0.107641 22.070622 -1.864777 -10.405000 -0.306960 -6.063260 17.374761 -0.007185 -1.799375 -6.399040 -0.861200 -5.917900 16.546400 0.799662 -0.662609 -6.087639 1.403344 -1.058078 -2.189366 0.941161 -0.860877 9.030607 -3.911623 -0.359692 -10.613241 7.630108 -1.103361 16.963234 1.965300 0.111300 6.343300 9.203881 5.240843 0.391951 -96.219074 -10.342050 24.849602 6.316826 -14.661612 -0.751007 -0.069023 -0.712507 5.372173 25.584385 -3.485422 -1.287700 -7.125000 0.000000 0.000000 -0.769800 26.997200 0.336500 -8.400772 -5.168913 0.087670 95.202862 6.119125 12.287544 -8.656527 19.646480 -1.634907 0.624212 0.851386 36.504520 -20.764321 -24.623611 9.355900 7.125000 0.000000 0.000000 9.976100 -56.992200 -2.951500 
-0.216743 17.844536 -13.881351 -1.784656 -0.370923 5.436519 -0.877758 0.724783 1.237814 -13.153087 3.776212 -8.868381 -0.666695 3.665395 10.466512 -1.249468 7.851458 -0.207013 0.046500 1.390900 3.825200 -1.210307 -0.898184 -0.105342 22.041147 -1.816410 -10.373992 -0.304182 -6.054514 17.350694 0.003812 -1.874632 -6.428336 -0.846600 -5.868700 16.404000 0.781891 -0.638002 -6.116266 1.400178 -1.025216 -2.198589 0.947440 -0.844865 9.007929 -3.854473 -0.317007 -10.577163 7.597465 -1.047789 16.880886 1.943400 0.136400 6.304400 9.208103 5.238360 0.388658 -96.034464 -10.294597 24.931120 6.339662 -14.715787 -0.755951 -0.068370 -0.714112 5.057524 25.719496 -3.599304 -1.349200 -7.125000 0.000000 0.000000 -0.665300 26.870500 0.292800 -8.401225 -5.169872 0.088387 95.337406 6.072613 12.516830 -8.705588 19.723415 -1.650586 0.617513 0.856114 36.378149 -20.635972 -24.785891 9.344500 7.125000 0.000000 0.000000 10.197000 -57.127800 -3.051300 
-0.204320 17.845243 -13.875594 -1.783319 -0.341049 5.455075 -0.879048 0.723374 1.237240 -13.199274 3.764774 -8.860069 -0.668691 3.660386 10.452803 -1.243659 7.824373 -0.223494 0.045200 1.372500 3.774300 -1.208461 -0.898876 -0.104593 21.996390 -1.832577 -10.365400 -0.301852 -6.045712 17.327277 0.009826 -1.915563 -6.444615 -0.837300 -5.837200 16.312600 0.768657 -0.632244 -6.144275 1.397013 -1.017037 -2.199728 0.947669 -0.841580 9.026059 -3.859267 -0.305532 -10.661484 7.610959 -1.029901 16.871182 1.952400 0.146500 6.320700 9.206900 5.241127 0.383270 -95.895581 -10.273621 24.906398 6.377185 -14.795850 -0.767113 -0.064152 -0.715571 4.873567 25.750704 -3.511839 -1.308200 -7.125000 0.000000 0.000000 -0.642000 26.968300 0.281000 -8.404429 -5.171212 0.087955 95.476443 6.109097 12.677646 -8.704202 19.718517 -1.649602 0.617119 0.853662 36.320925 -20.677614 -24.695125 9.335000 7.125000 0.000000 0.000000 10.105300 -57.042800 -3.002600 
-0.192604 17.845748 -13.870039 -1.789028 -0.319965 5.476399 -0.880185 0.721859 1.237185 -13.234045 3.760434 -8.862196 -0.669777 3.658459 10.448069 -1.238679 7.799685 -0.248970 0.045700 1.379900 3.794600 -1.206835 -0.899637 -0.102829 21.963410 -1.817176 -10.346660 -0.298523 -6.034463 17.296518 0.019189 -1.977364 -6.462994 -0.827800 -5.804700 16.218900 0.753422 -0.618045 -6.171133 1.394586 -0.997976 -2.205780 0.954005 -0.832434 9.018683 -3.848103 -0.285715 -10.665140 7.615632 -1.005020 16.820689 1.953100 0.158200 6.303400 9.208234 5.240264 0.379659 -95.744896 -10.238362 24.934718 6.406639 -14.860976 -0.775515 -0.060899 -0.716845 4.640267 25.806103 -3.483592 -1.297100 -7.125000 0.000000 0.000000 -0.599500 26.999800 0.262000 -8.406892 -5.172744 0.088523 95.612739 6.102212 12.874738 -8.726789 19.752333 -1.656666 0.614612 0.853579 36.219460 -20.670737 -24.685703 9.327900 7.125000 0.000000 0.000000 10.107300 -57.030000 -3.000100 
-0.180990 17.846152 -13.864585 -1.799717 -0.296391 5.497606 -0.881293 0.720364 1.236994 -13.262511 3.749212 -8.864172 -0.670696 3.657668 10.445818 -1.234852 7.780815 -0.275394 0.046200 1.386600 3.813200 -1.205389 -0.900443 -0.101113 21.936475 -1.802414 -10.327064 -0.294991 -6.022748 17.264193 0.028399 -2.038279 -6.481010 -0.819300 -5.775500 16.134500 0.742969 -0.604266 -6.196489 1.392974 -0.980142 -2.211574 0.960060 -0.823693 9.011106 -3.835527 -0.264399 -10.665134 7.624459 -0.979553 16.765183 1.954700 0.170400 6.283400 9.209980 5.239150 0.376590 -95.608567 -10.201198 24.957248 6.434435 -14.922079 -0.783688 -0.058340 -0.717871 4.426097 25.847327 -3.477865 -1.296100 -7.125000 0.000000 0.000000 -0.567800 27.006500 0.248000 -8.409320 -5.174583 0.088947 95.749858 6.095152 13.087039 -8.754026 19.793554 -1.665304 0.611946 0.853787 36.106722 -20.664954 -24.689297 9.325700 7.125000 0.000000 0.000000 10.114800 -57.030800 -3.002600 
-0.169577 17.846657 -13.859333 -1.812853 -0.269351 5.518297 -0.882357 0.718551 1.236448 -13.287128 3.733583 -8.870175 -0.670990 3.660178 10.452416 -1.231065 7.761452 -0.304395 0.046400 1.390300 3.823500 -1.204105 -0.901263 -0.099405 21.913038 -1.789327 -10.306519 -0.291188 -6.010112 17.229834 0.037662 -2.099319 -6.497649 -0.811900 -5.750200 16.061300 0.733232 -0.591265 -6.220061 1.392263 -0.963601 -2.217097 0.969018 -0.815527 9.002785 -3.831319 -0.245807 -10.655786 7.642585 -0.958922 16.705431 1.960800 0.180200 6.259800 9.211810 5.237523 0.374277 -95.489327 -10.165200 24.969969 6.458367 -14.974972 -0.791051 -0.055976 -0.718651 4.243938 25.871241 -3.465970 -1.291300 -7.125000 0.000000 0.000000 -0.549400 27.019900 0.239900 -8.412027 -5.176866 0.089390 95.885284 6.085099 13.317578 -8.786861 19.843916 -1.675854 0.609301 0.853947 35.974572 -20.668376 -24.687714 9.326400 7.125000 0.000000 0.000000 10.109400 -57.028400 -3.000300 
-0.158265 17.847061 -13.854182 -1.826963 -0.243402 5.537828 -0.883363 0.716672 1.235870 -13.310026 3.719331 -8.878143 -0.670936 3.664185 10.463247 -1.227128 7.741618 -0.334807 0.046800 1.395700 3.838200 -1.202923 -0.902159 -0.097643 21.891480 -1.777326 -10.285449 -0.287394 -5.997352 17.195016 0.046854 -2.158550 -6.511423 -0.804200 -5.723400 15.983900 0.722552 -0.577503 -6.240427 1.391897 -0.946075 -2.222797 0.979984 -0.806913 8.991117 -3.831036 -0.227321 -10.635182 7.668433 -0.940289 16.637853 1.969900 0.189000 6.230900 9.213915 5.235131 0.372613 -95.384209 -10.128483 24.981769 6.478210 -15.019183 -0.797285 -0.054332 -0.719198 4.089308 25.887667 -3.472447 -1.295100 -7.125000 0.000000 0.000000 -0.536700 27.013100 0.234400 -8.414993 -5.179519 0.089789 96.020149 6.067323 13.568360 -8.828479 19.908487 -1.689733 0.606303 0.854321 35.827095 -20.667834 -24.692766 9.327300 7.125000 0.000000 0.000000 10.111700 -57.031900 -3.001900 
